<svg width="32" height="32" viewBox="0 0 32 32" fill="none" xmlns="http://www.w3.org/2000/svg">
  <path d="M12.686 8.00001L15.293 5.39301C15.4805 5.20554 15.7348 5.10022 16 5.10022C16.2652 5.10022 16.5195 5.20554 16.707 5.39301L19.314 8.00001H23C23.2652 8.00001 23.5196 8.10536 23.7071 8.2929C23.8946 8.48044 24 8.73479 24 9.00001V12.686L26.607 15.293C26.7945 15.4805 26.8998 15.7348 26.8998 16C26.8998 16.2652 26.7945 16.5195 26.607 16.707L24 19.314V23C24 23.2652 23.8946 23.5196 23.7071 23.7071C23.5196 23.8946 23.2652 24 23 24H19.314L16.707 26.607C16.5195 26.7945 16.2652 26.8998 16 26.8998C15.7348 26.8998 15.4805 26.7945 15.293 26.607L12.686 24H9.00001C8.73479 24 8.48044 23.8946 8.2929 23.7071C8.10536 23.5196 8.00001 23.2652 8.00001 23V19.314L5.39301 16.707C5.20554 16.5195 5.10022 16.2652 5.10022 16C5.10022 15.7348 5.20554 15.4805 5.39301 15.293L8.00001 12.686V9.00001C8.00001 8.73479 8.10536 8.48044 8.2929 8.2929C8.48044 8.10536 8.73479 8.00001 9.00001 8.00001H12.686ZM10 10V13.515L7.51501 16L10 18.485V22H13.515L16 24.485L18.485 22H22V18.485L24.485 16L22 13.515V10H18.485L16 7.51501L13.515 10H10ZM16 20C14.9391 20 13.9217 19.5786 13.1716 18.8284C12.4214 18.0783 12 17.0609 12 16C12 14.9391 12.4214 13.9217 13.1716 13.1716C13.9217 12.4214 14.9391 12 16 12C17.0609 12 18.0783 12.4214 18.8284 13.1716C19.5786 13.9217 20 14.9391 20 16C20 17.0609 19.5786 18.0783 18.8284 18.8284C18.0783 19.5786 17.0609 20 16 20ZM16 18C16.5304 18 17.0391 17.7893 17.4142 17.4142C17.7893 17.0391 18 16.5304 18 16C18 15.4696 17.7893 14.9609 17.4142 14.5858C17.0391 14.2107 16.5304 14 16 14C15.4696 14 14.9609 14.2107 14.5858 14.5858C14.2107 14.9609 14 15.4696 14 16C14 16.5304 14.2107 17.0391 14.5858 17.4142C14.9609 17.7893 15.4696 18 16 18Z" fill="white"/>
</svg>
