<svg width="24" height="24" viewBox="0 0 24 24" fill="none" xmlns="http://www.w3.org/2000/svg">
  <path d="M12 0.5L16.226 6.683L23.412 8.792L18.837 14.722L19.053 22.208L12 19.69L4.94598 22.208L5.16198 14.722L0.586975 8.792L7.77398 6.683L12 0.5ZM12 4.044L9.02198 8.402L3.95697 9.887L7.18198 14.066L7.02898 19.34L11.999 17.566L16.969 19.34L16.818 14.066L20.042 9.887L14.977 8.402L12 4.044ZM9.99998 12C9.99998 12.5304 10.2107 13.0391 10.5858 13.4142C10.9608 13.7893 11.4695 14 12 14C12.5304 14 13.0391 13.7893 13.4142 13.4142C13.7893 13.0391 14 12.5304 14 12H16C16 13.0609 15.5785 14.0783 14.8284 14.8284C14.0783 15.5786 13.0608 16 12 16C10.9391 16 9.92169 15.5786 9.17155 14.8284C8.4214 14.0783 7.99998 13.0609 7.99998 12H9.99998Z" fill="#47B177"/>
</svg>
